# Blender v2.90.1 OBJ File: 'cube.blend'
# www.blender.org
mtllib cube.mtl
o Cube_Cube.002
v 1.000000 -1.000000 -1.000000
v 1.000000 1.000000 -1.000000
v 1.000000 -1.000000 -3.000000
v 1.000000 1.000000 -3.000000
v 3.000000 -1.000000 -1.000000
v 3.000000 1.000000 -1.000000
v 3.000000 -1.000000 -3.000000
v 3.000000 1.000000 -3.000000
v 1.000000 -1.000000 3.000000
v 1.000000 1.000000 3.000000
v 1.000000 -1.000000 1.000000
v 1.000000 1.000000 1.000000
v 3.000000 -1.000000 3.000000
v 3.000000 1.000000 3.000000
v 3.000000 -1.000000 1.000000
v 3.000000 1.000000 1.000000
vt 0.375000 0.000000
vt 0.625000 0.000000
vt 0.625000 0.250000
vt 0.375000 0.250000
vt 0.625000 0.500000
vt 0.375000 0.500000
vt 0.625000 0.750000
vt 0.375000 0.750000
vt 0.625000 1.000000
vt 0.375000 1.000000
vt 0.125000 0.500000
vt 0.125000 0.750000
vt 0.875000 0.500000
vt 0.875000 0.750000
vt 0.375000 0.000000
vt 0.625000 0.000000
vt 0.625000 0.250000
vt 0.375000 0.250000
vt 0.625000 0.500000
vt 0.375000 0.500000
vt 0.625000 0.750000
vt 0.375000 0.750000
vt 0.625000 1.000000
vt 0.375000 1.000000
vt 0.125000 0.500000
vt 0.125000 0.750000
vt 0.875000 0.500000
vt 0.875000 0.750000
vn -1.0000 0.0000 0.0000
vn 0.0000 0.0000 -1.0000
vn 1.0000 0.0000 0.0000
vn 0.0000 0.0000 1.0000
vn 0.0000 -1.0000 0.0000
vn 0.0000 1.0000 0.0000
vn -0.5773 -0.5773 0.5773
vn -0.5773 0.5773 0.5773
vn -0.5773 0.5773 -0.5773
vn -0.5773 -0.5773 -0.5773
vn 0.5773 0.5773 -0.5773
vn 0.5773 -0.5773 -0.5773
vn 0.5773 0.5773 0.5773
vn 0.5773 -0.5773 0.5773
usemtl None
s off
f 9/1/1 10/2/1 12/3/1 11/4/1
f 11/4/2 12/3/2 16/5/2 15/6/2
f 15/6/3 16/5/3 14/7/3 13/8/3
f 13/8/4 14/7/4 10/9/4 9/10/4
f 11/11/5 15/6/5 13/8/5 9/12/5
f 16/5/6 12/13/6 10/14/6 14/7/6
s 1
f 1/15/7 2/16/8 4/17/9 3/18/10
f 3/18/10 4/17/9 8/19/11 7/20/12
f 7/20/12 8/19/11 6/21/13 5/22/14
f 5/22/14 6/21/13 2/23/8 1/24/7
f 3/25/10 7/20/12 5/22/14 1/26/7
f 8/19/11 4/27/9 2/28/8 6/21/13
o Cube.001_Cube.003
v -3.000000 -1.000000 -1.000000
v -3.000000 1.000000 -1.000000
v -3.000000 -1.000000 -3.000000
v -3.000000 1.000000 -3.000000
v -1.000000 -1.000000 -1.000000
v -1.000000 1.000000 -1.000000
v -1.000000 -1.000000 -3.000000
v -1.000000 1.000000 -3.000000
v -3.000000 -1.000000 3.000000
v -3.000000 1.000000 3.000000
v -3.000000 -1.000000 1.000000
v -3.000000 1.000000 1.000000
v -1.000000 -1.000000 3.000000
v -1.000000 1.000000 3.000000
v -1.000000 -1.000000 1.000000
v -1.000000 1.000000 1.000000
vt 0.375000 0.000000
vt 0.625000 0.000000
vt 0.625000 0.250000
vt 0.375000 0.250000
vt 0.625000 0.500000
vt 0.375000 0.500000
vt 0.625000 0.750000
vt 0.375000 0.750000
vt 0.625000 1.000000
vt 0.375000 1.000000
vt 0.125000 0.500000
vt 0.125000 0.750000
vt 0.875000 0.500000
vt 0.875000 0.750000
vt 0.375000 0.000000
vt 0.625000 0.000000
vt 0.625000 0.250000
vt 0.375000 0.250000
vt 0.625000 0.500000
vt 0.375000 0.500000
vt 0.625000 0.750000
vt 0.375000 0.750000
vt 0.625000 1.000000
vt 0.375000 1.000000
vt 0.125000 0.500000
vt 0.125000 0.750000
vt 0.875000 0.500000
vt 0.875000 0.750000
vn -1.0000 0.0000 0.0000
vn 0.0000 0.0000 -1.0000
vn 1.0000 0.0000 0.0000
vn 0.0000 0.0000 1.0000
vn 0.0000 -1.0000 0.0000
vn 0.0000 1.0000 0.0000
vn -0.5773 -0.5773 0.5773
vn -0.5773 0.5773 0.5773
vn -0.5773 0.5773 -0.5773
vn -0.5773 -0.5773 -0.5773
vn 0.5773 0.5773 -0.5773
vn 0.5773 -0.5773 -0.5773
vn 0.5773 0.5773 0.5773
vn 0.5773 -0.5773 0.5773
usemtl None
s off
f 17/29/15 18/30/15 20/31/15 19/32/15
f 19/32/16 20/31/16 24/33/16 23/34/16
f 23/34/17 24/33/17 22/35/17 21/36/17
f 21/36/18 22/35/18 18/37/18 17/38/18
f 19/39/19 23/34/19 21/36/19 17/40/19
f 24/33/20 20/41/20 18/42/20 22/35/20
s 1
f 25/43/21 26/44/22 28/45/23 27/46/24
f 27/46/24 28/45/23 32/47/25 31/48/26
f 31/48/26 32/47/25 30/49/27 29/50/28
f 29/50/28 30/49/27 26/51/22 25/52/21
f 27/53/24 31/48/26 29/50/28 25/54/21
f 32/47/25 28/55/23 26/56/22 30/49/27