# Blender v2.90.1 OBJ File: 'table.blend'
# www.blender.org
mtllib table.mtl
o Tisch_Cube
v 0.980005 0.080000 -0.505000
v 0.980005 -0.000000 -0.505000
v 0.980005 0.080000 0.505000
v 0.980005 -0.000000 0.505000
v -0.979995 0.080000 -0.505000
v -0.979995 -0.000000 -0.505000
v -0.979995 0.080000 0.505000
v -0.979995 -0.000000 0.505000
v 1.000005 0.080000 0.525000
v -0.999995 0.080000 0.525000
v 1.000005 0.080000 -0.525000
v -0.999995 0.080000 -0.525000
v 0.980005 0.015000 0.505000
v -0.979995 0.015000 0.505000
v 0.980005 0.015000 -0.505000
v -0.979995 0.015000 -0.505000
v -0.999995 -0.000000 -0.525000
v -0.999995 -0.000000 0.525000
v 1.000005 -0.000000 -0.525000
v 1.000005 -0.000000 0.525000
v -0.034995 1.580000 0.550000
v -0.034995 1.650000 0.550000
v -0.034995 1.580000 -0.550000
v -0.034995 1.650000 -0.550000
v 0.035005 1.580000 0.550000
v 0.035010 1.650000 0.550000
v 0.035005 1.580000 -0.550000
v 0.035010 1.650000 -0.550000
v -0.035000 1.579999 0.550000
v 0.035000 1.579999 0.550000
v -0.035000 1.579999 0.480000
v 0.035000 1.579999 0.480000
v -0.035000 1.579999 0.550000
v -0.035000 0.014999 0.550000
v 0.035000 1.579999 0.550000
v 0.035000 0.014999 0.550000
v 0.035000 1.579999 0.480000
v 0.035000 0.014999 0.480000
v -0.035000 1.579999 0.480000
v -0.035000 0.014999 0.480000
v 0.035000 0.014999 0.550000
v -0.035000 0.014999 0.550000
v 0.035000 0.014999 0.525000
v -0.035000 0.014999 0.525000
v 0.035000 0.014999 0.505000
v -0.035000 0.014999 0.505000
v 0.035000 0.014999 0.480000
v -0.035000 0.014999 0.480000
v 0.035000 1.579999 0.550000
v 0.035000 0.079999 0.550000
v 0.035000 1.579999 0.480000
v 0.035000 0.079999 0.480000
v 0.035000 0.080000 0.550000
v 0.035000 0.014999 0.550000
v 0.035000 0.080000 0.525000
v 0.035000 0.014999 0.525000
v 0.035000 0.080000 0.505000
v 0.035000 0.014999 0.505000
v 0.035000 0.080000 0.480000
v 0.035000 0.014999 0.480000
v -0.035000 1.579999 0.480000
v -0.035000 0.079999 0.480000
v -0.035000 1.579999 0.550000
v -0.035000 0.079999 0.550000
v -0.035000 0.080000 0.480000
v -0.035000 0.014999 0.480000
v -0.035000 0.080000 0.505000
v -0.035000 0.014999 0.505000
v -0.035000 0.080000 0.525000
v -0.035000 0.014999 0.525000
v -0.035000 0.080000 0.550000
v -0.035000 0.014999 0.550000
v -0.035000 1.579999 -0.480000
v 0.035000 1.579999 -0.480000
v -0.035000 1.579999 -0.550000
v 0.035000 1.579999 -0.550000
v -0.035000 1.579999 -0.480000
v -0.035000 0.014999 -0.480000
v 0.035000 1.579999 -0.480000
v 0.035000 0.014999 -0.480000
v 0.035000 1.579999 -0.550000
v 0.035000 0.014999 -0.550000
v -0.035000 1.579999 -0.550000
v -0.035000 0.014999 -0.550000
v 0.035000 0.014999 -0.480000
v -0.035000 0.014999 -0.480000
v 0.035000 0.014999 -0.505000
v -0.035000 0.014999 -0.505000
v 0.035000 0.014999 -0.525000
v -0.035000 0.014999 -0.525000
v 0.035000 0.014999 -0.550000
v -0.035000 0.014999 -0.550000
v 0.035000 1.579999 -0.480000
v 0.035000 0.079999 -0.480000
v 0.035000 1.579999 -0.550000
v 0.035000 0.079999 -0.550000
v 0.035000 0.080000 -0.480000
v 0.035000 0.014999 -0.480000
v 0.035000 0.080000 -0.505000
v 0.035000 0.014999 -0.505000
v 0.035000 0.080000 -0.525000
v 0.035000 0.014999 -0.525000
v 0.035000 0.080000 -0.550000
v 0.035000 0.014999 -0.550000
v -0.035000 1.579999 -0.550000
v -0.035000 0.079999 -0.550000
v -0.035000 1.579999 -0.480000
v -0.035000 0.079999 -0.480000
v -0.035000 0.080000 -0.550000
v -0.035000 0.014999 -0.550000
v -0.035000 0.080000 -0.525000
v -0.035000 0.014999 -0.525000
v -0.035000 0.080000 -0.505000
v -0.035000 0.014999 -0.505000
v -0.035000 0.080000 -0.480000
v -0.035000 0.014999 -0.480000
v -0.035000 1.650000 0.550000
v -0.035000 1.396000 0.550000
v -0.035000 1.650000 0.480000
v -0.035000 1.396000 0.480000
v -0.035000 1.650000 0.550000
v -0.486400 0.015000 0.550000
v -0.035000 1.396000 0.550000
v -0.413600 0.015000 0.550000
v -0.035000 1.396000 0.480000
v -0.413600 0.015000 0.480000
v -0.035000 1.650000 0.480000
v -0.486400 0.015000 0.480000
v -0.413600 0.015000 0.550000
v -0.486400 0.015000 0.550000
v -0.413600 0.015000 0.525000
v -0.486400 0.015000 0.525000
v -0.413600 0.015000 0.505000
v -0.486400 0.015000 0.505000
v -0.413600 0.015000 0.480000
v -0.486400 0.015000 0.480000
v -0.035000 1.396000 0.550000
v -0.395800 0.080000 0.550000
v -0.035000 1.396000 0.480000
v -0.395800 0.080000 0.480000
v -0.395800 0.080000 0.550000
v -0.413600 0.015000 0.550000
v -0.395800 0.080000 0.525000
v -0.413600 0.015000 0.525000
v -0.395800 0.080000 0.505000
v -0.413600 0.015000 0.505000
v -0.395800 0.080000 0.480000
v -0.413600 0.015000 0.480000
v -0.035000 1.650000 0.480000
v -0.468400 0.080000 0.480000
v -0.035000 1.650000 0.550000
v -0.468400 0.080000 0.550000
v -0.468400 0.080000 0.480000
v -0.486400 0.015000 0.480000
v -0.468400 0.080000 0.505000
v -0.486400 0.015000 0.505000
v -0.468400 0.080000 0.525000
v -0.486400 0.015000 0.525000
v -0.468400 0.080000 0.550000
v -0.486400 0.015000 0.550000
v -0.035000 1.650000 -0.480000
v -0.035000 1.396000 -0.480000
v -0.035000 1.650000 -0.550000
v -0.035000 1.396000 -0.550000
v -0.035000 1.650000 -0.480000
v -0.486400 0.015000 -0.480000
v -0.035000 1.396000 -0.480000
v -0.413600 0.015000 -0.480000
v -0.035000 1.396000 -0.550000
v -0.413600 0.015000 -0.550000
v -0.035000 1.650000 -0.550000
v -0.486400 0.015000 -0.550000
v -0.413600 0.015000 -0.480000
v -0.486400 0.015000 -0.480000
v -0.413600 0.015000 -0.505000
v -0.486400 0.015000 -0.505000
v -0.413600 0.015000 -0.525000
v -0.486400 0.015000 -0.525000
v -0.413600 0.015000 -0.550000
v -0.486400 0.015000 -0.550000
v -0.035000 1.396000 -0.480000
v -0.395800 0.080000 -0.480000
v -0.035000 1.396000 -0.550000
v -0.395800 0.080000 -0.550000
v -0.395800 0.080000 -0.480000
v -0.413600 0.015000 -0.480000
v -0.395800 0.080000 -0.505000
v -0.413600 0.015000 -0.505000
v -0.395800 0.080000 -0.525000
v -0.413600 0.015000 -0.525000
v -0.395800 0.080000 -0.550000
v -0.413600 0.015000 -0.550000
v -0.035000 1.650000 -0.550000
v -0.468000 0.080000 -0.550000
v -0.035000 1.650000 -0.480000
v -0.468000 0.080000 -0.480000
v -0.468000 0.080000 -0.550000
v -0.486400 0.015000 -0.550000
v -0.468000 0.080000 -0.525000
v -0.486400 0.015000 -0.525000
v -0.468000 0.080000 -0.505000
v -0.486400 0.015000 -0.505000
v -0.468000 0.080000 -0.480000
v -0.486400 0.015000 -0.480000
v 0.035010 1.650000 -0.550000
v 0.035009 1.396000 -0.550000
v 0.035010 1.650000 -0.480000
v 0.035009 1.396000 -0.480000
v 0.035009 1.396000 -0.480000
v 0.413827 0.015000 -0.480000
v 0.035010 1.650000 -0.480000
v 0.486627 0.015000 -0.480000
v 0.035010 1.650000 -0.550000
v 0.486627 0.015000 -0.550000
v 0.035009 1.396000 -0.550000
v 0.413827 0.015000 -0.550000
v 0.413827 0.015000 -0.505000
v 0.486627 0.015000 -0.505000
v 0.413827 0.015000 -0.480000
v 0.486627 0.015000 -0.480000
v 0.413827 0.015000 -0.550000
v 0.486627 0.015000 -0.550000
v 0.413827 0.015000 -0.525000
v 0.486627 0.015000 -0.525000
v 0.035012 1.396000 -0.550000
v 0.396000 0.080000 -0.550000
v 0.035011 1.396000 -0.480000
v 0.396000 0.080000 -0.480000
v 0.396000 0.080000 -0.505000
v 0.413830 0.015000 -0.505000
v 0.396000 0.080000 -0.480000
v 0.413830 0.015000 -0.480000
v 0.396000 0.080000 -0.550000
v 0.413830 0.015000 -0.550000
v 0.396000 0.080000 -0.525000
v 0.413830 0.015000 -0.525000
v 0.035010 1.650000 -0.480000
v 0.468230 0.080000 -0.480000
v 0.035010 1.650000 -0.550000
v 0.468230 0.080000 -0.550000
v 0.468230 0.080000 -0.525000
v 0.486630 0.015000 -0.525000
v 0.468230 0.080000 -0.550000
v 0.486630 0.015000 -0.550000
v 0.468230 0.080000 -0.480000
v 0.486630 0.015000 -0.480000
v 0.468230 0.080000 -0.505000
v 0.486630 0.015000 -0.505000
v 0.035010 1.650000 0.480000
v 0.035009 1.396000 0.480000
v 0.035010 1.650000 0.550000
v 0.035010 1.396000 0.550000
v 0.035010 1.396000 0.550000
v 0.413830 0.015000 0.550000
v 0.035010 1.650000 0.550000
v 0.486630 0.015000 0.550000
v 0.035010 1.650000 0.480000
v 0.486627 0.015000 0.480000
v 0.035009 1.396000 0.480000
v 0.413827 0.015000 0.480000
v 0.413827 0.015000 0.525000
v 0.486627 0.015000 0.525000
v 0.413827 0.015000 0.550000
v 0.486627 0.015000 0.550000
v 0.413827 0.015000 0.480000
v 0.486627 0.015000 0.480000
v 0.413827 0.015000 0.505000
v 0.486627 0.015000 0.505000
v 0.035012 1.396000 0.480000
v 0.396000 0.080000 0.480000
v 0.035230 1.396000 0.550000
v 0.396000 0.080000 0.550000
v 0.396000 0.080000 0.525000
v 0.413830 0.015000 0.525000
v 0.396000 0.080000 0.550000
v 0.413830 0.015000 0.550000
v 0.396000 0.080000 0.480000
v 0.413830 0.015000 0.480000
v 0.395998 0.080000 0.505000
v 0.413830 0.015000 0.505000
v 0.035010 1.650000 0.550000
v 0.468230 0.080000 0.550000
v 0.035010 1.650000 0.480000
v 0.468230 0.080000 0.480000
v 0.468230 0.080000 0.505000
v 0.486630 0.015000 0.505000
v 0.468230 0.080000 0.480000
v 0.486630 0.015000 0.480000
v 0.468230 0.080000 0.550000
v 0.486630 0.015000 0.550000
v 0.468228 0.080000 0.525000
v 0.486630 0.015000 0.525000
vt 0.257485 0.766432
vt 0.005017 0.766377
vt 0.005007 0.734307
vt 0.257490 0.734290
vt 0.000272 0.999450
vt 0.000281 0.960513
vt 0.499716 0.960442
vt 0.499718 0.999450
vt 0.000247 0.815387
vt 0.000275 0.776402
vt 0.262228 0.776371
vt 0.262203 0.815218
vt 0.510262 0.000506
vt 0.999727 0.000515
vt 0.999720 0.499243
vt 0.510259 0.499245
vt 0.262217 0.684380
vt 0.262229 0.723381
vt 0.000277 0.723360
vt 0.000275 0.684380
vt 0.000270 0.907450
vt 0.000272 0.868909
vt 0.499722 0.868420
vt 0.499702 0.907403
vt 0.005010 0.918347
vt 0.494983 0.918333
vt 0.499711 0.909018
vt 0.000266 0.909019
vt 0.257482 0.642237
vt 0.005012 0.642217
vt 0.000266 0.632895
vt 0.262232 0.632917
vt 0.257492 0.734279
vt 0.005014 0.734267
vt 0.000260 0.724909
vt 0.262215 0.724928
vt 0.494990 0.826307
vt 0.005023 0.826284
vt 0.000259 0.816981
vt 0.499736 0.816965
vt 0.510269 0.500760
vt 0.999735 0.500764
vt 0.999737 0.999500
vt 0.510261 0.999496
vt 0.494975 0.950456
vt 0.005047 0.950460
vt 0.005045 0.918407
vt 0.494961 0.918439
vt 0.005033 0.858427
vt 0.494984 0.858462
vt 0.494983 0.826355
vt 0.005018 0.826374
vt 0.257495 0.674402
vt 0.005026 0.674367
vt 0.005009 0.642272
vt 0.257482 0.642300
vt 0.257487 0.766478
vt 0.005024 0.766480
vt 0.000264 0.776328
vt 0.262235 0.776322
vt 0.494981 0.858512
vt 0.005020 0.858517
vt 0.000274 0.868859
vt 0.499729 0.868338
vt 0.004769 0.950556
vt 0.494981 0.950545
vt 0.499736 0.960376
vt 0.000284 0.960373
vt 0.005039 0.674474
vt 0.257493 0.674430
vt 0.262240 0.684302
vt 0.000275 0.684281
vt 0.292191 0.597253
vt 0.292196 0.631332
vt 0.017809 0.631285
vt 0.017777 0.597247
vt 0.000266 0.596682
vt 0.000266 0.563135
vt 0.017492 0.563127
vt 0.017492 0.596703
vt 0.017822 0.562561
vt 0.017816 0.527987
vt 0.292213 0.527987
vt 0.292211 0.562577
vt 0.292516 0.596672
vt 0.292512 0.563163
vt 0.309721 0.563196
vt 0.309740 0.596686
vt 0.292224 0.597213
vt 0.017785 0.527944
vt 0.017782 0.493854
vt 0.292207 0.493901
vt 0.292217 0.527935
vt 0.457217 0.457617
vt 0.440305 0.457617
vt 0.440305 0.424069
vt 0.457217 0.424069
vt 0.439722 0.388916
vt 0.050288 0.388916
vt 0.050288 0.354835
vt 0.439722 0.354835
vt 0.439731 0.458187
vt 0.050261 0.458187
vt 0.050261 0.423551
vt 0.439731 0.423551
vt 0.037249 0.457659
vt 0.037249 0.424099
vt 0.043500 0.424099
vt 0.043500 0.457659
vt 0.043501 0.457666
vt 0.043501 0.424101
vt 0.049737 0.424101
vt 0.049737 0.457666
vt 0.439731 0.423553
vt 0.066349 0.423553
vt 0.066266 0.388918
vt 0.439731 0.388916
vt 0.066335 0.423551
vt 0.050267 0.423551
vt 0.050267 0.411261
vt 0.066335 0.411261
vt 0.066260 0.401272
vt 0.050277 0.401272
vt 0.050277 0.388909
vt 0.066260 0.388909
vt 0.439711 0.492283
vt 0.066250 0.492283
vt 0.066250 0.458102
vt 0.439711 0.458102
vt 0.066244 0.492296
vt 0.050267 0.492296
vt 0.050267 0.479924
vt 0.066244 0.479923
vt 0.066251 0.470534
vt 0.050261 0.470535
vt 0.050261 0.458193
vt 0.066251 0.458193
vt 0.457217 0.457617
vt 0.440305 0.457617
vt 0.440305 0.424069
vt 0.457217 0.424069
vt 0.439722 0.388916
vt 0.050288 0.388916
vt 0.050288 0.354835
vt 0.439722 0.354835
vt 0.439731 0.458180
vt 0.050261 0.458180
vt 0.050261 0.423552
vt 0.439731 0.423552
vt 0.037249 0.457659
vt 0.037249 0.424099
vt 0.043500 0.424099
vt 0.043500 0.457659
vt 0.043501 0.457666
vt 0.043501 0.424101
vt 0.049737 0.424101
vt 0.049737 0.457666
vt 0.439731 0.423553
vt 0.066349 0.423553
vt 0.066266 0.388918
vt 0.439731 0.388916
vt 0.066335 0.423551
vt 0.050267 0.423551
vt 0.050267 0.411261
vt 0.066335 0.411261
vt 0.066260 0.401272
vt 0.050277 0.401272
vt 0.050277 0.388909
vt 0.066260 0.388909
vt 0.439711 0.492283
vt 0.066250 0.492283
vt 0.066250 0.458102
vt 0.439711 0.458102
vt 0.066244 0.492296
vt 0.050267 0.492296
vt 0.050267 0.479924
vt 0.066244 0.479923
vt 0.066251 0.470534
vt 0.050261 0.470535
vt 0.050261 0.458193
vt 0.066251 0.458193
vt 0.477774 0.318609
vt 0.477774 0.200948
vt 0.494732 0.200948
vt 0.494733 0.318609
vt 0.474982 0.249879
vt 0.050262 0.249927
vt 0.076009 0.215766
vt 0.417709 0.215766
vt 0.417762 0.319137
vt 0.076026 0.319137
vt 0.050261 0.284524
vt 0.475233 0.284551
vt 0.037512 0.318577
vt 0.037512 0.283599
vt 0.043777 0.283599
vt 0.043777 0.318577
vt 0.043774 0.318626
vt 0.043774 0.283540
vt 0.049733 0.283540
vt 0.049734 0.318626
vt 0.417751 0.284599
vt 0.093018 0.284599
vt 0.093018 0.249880
vt 0.417751 0.249880
vt 0.093019 0.284519
vt 0.076001 0.284520
vt 0.076001 0.273646
vt 0.093019 0.273646
vt 0.092999 0.262249
vt 0.076021 0.262249
vt 0.076021 0.249928
vt 0.092999 0.249928
vt 0.475249 0.353265
vt 0.066999 0.353265
vt 0.066999 0.319151
vt 0.475249 0.319151
vt 0.066997 0.353246
vt 0.050280 0.353246
vt 0.050280 0.340919
vt 0.066997 0.340919
vt 0.067005 0.331037
vt 0.050261 0.331037
vt 0.050261 0.319213
vt 0.067005 0.319213
vt 0.477774 0.318609
vt 0.477774 0.200948
vt 0.494732 0.200948
vt 0.494733 0.318609
vt 0.474982 0.249879
vt 0.050262 0.249927
vt 0.076009 0.215766
vt 0.417709 0.215766
vt 0.417762 0.319137
vt 0.076026 0.319137
vt 0.050261 0.284524
vt 0.475233 0.284551
vt 0.043774 0.318626
vt 0.043774 0.283540
vt 0.049733 0.283540
vt 0.049734 0.318626
vt 0.037512 0.318577
vt 0.037512 0.283599
vt 0.043777 0.283599
vt 0.043777 0.318577
vt 0.417751 0.284599
vt 0.093018 0.284599
vt 0.093018 0.249880
vt 0.417751 0.249880
vt 0.093019 0.284519
vt 0.076001 0.284520
vt 0.076001 0.273646
vt 0.093019 0.273646
vt 0.092999 0.262249
vt 0.076021 0.262249
vt 0.076021 0.249928
vt 0.092999 0.249928
vt 0.475249 0.353265
vt 0.066999 0.353265
vt 0.066999 0.319151
vt 0.475249 0.319151
vt 0.066997 0.353246
vt 0.050280 0.353246
vt 0.050280 0.340919
vt 0.066997 0.340919
vt 0.067005 0.331037
vt 0.050261 0.331037
vt 0.050261 0.319213
vt 0.067005 0.319213
vt 0.477774 0.318609
vt 0.477774 0.200948
vt 0.494732 0.200948
vt 0.494733 0.318609
vt 0.417771 0.249879
vt 0.076022 0.249927
vt 0.050263 0.215766
vt 0.475252 0.215766
vt 0.475246 0.319137
vt 0.050277 0.319137
vt 0.076013 0.284524
vt 0.417729 0.284551
vt 0.043774 0.318626
vt 0.043774 0.283540
vt 0.049733 0.283540
vt 0.049734 0.318626
vt 0.037512 0.318577
vt 0.037512 0.283599
vt 0.043777 0.283599
vt 0.043777 0.318577
vt 0.417751 0.284599
vt 0.093018 0.284599
vt 0.093018 0.249880
vt 0.417751 0.249880
vt 0.093019 0.262252
vt 0.076001 0.262252
vt 0.076001 0.249879
vt 0.093019 0.249879
vt 0.092999 0.284614
vt 0.076021 0.284614
vt 0.076021 0.272293
vt 0.092999 0.272293
vt 0.475249 0.319151
vt 0.066999 0.319151
vt 0.066999 0.353265
vt 0.475249 0.353265
vt 0.066997 0.340916
vt 0.050280 0.340916
vt 0.050280 0.353243
vt 0.066997 0.353243
vt 0.067005 0.319183
vt 0.050261 0.319182
vt 0.050261 0.331007
vt 0.067005 0.331007
vt 0.477774 0.318609
vt 0.477774 0.200948
vt 0.494732 0.200948
vt 0.494733 0.318609
vt 0.417771 0.249879
vt 0.076022 0.249927
vt 0.050263 0.215766
vt 0.475252 0.215766
vt 0.475246 0.319137
vt 0.050277 0.319137
vt 0.076013 0.284524
vt 0.417729 0.284551
vt 0.037512 0.318577
vt 0.037512 0.283599
vt 0.043777 0.283599
vt 0.043777 0.318577
vt 0.043774 0.318626
vt 0.043774 0.283540
vt 0.049733 0.283540
vt 0.049734 0.318626
vt 0.417751 0.284599
vt 0.093018 0.284599
vt 0.093018 0.249880
vt 0.417751 0.249880
vt 0.093019 0.262252
vt 0.076001 0.262252
vt 0.076001 0.249879
vt 0.093019 0.249879
vt 0.092999 0.284614
vt 0.076021 0.284614
vt 0.076021 0.272293
vt 0.092999 0.272293
vt 0.475249 0.319151
vt 0.066999 0.319151
vt 0.066999 0.353265
vt 0.475249 0.353265
vt 0.066997 0.340916
vt 0.050280 0.340916
vt 0.050280 0.353243
vt 0.066997 0.353243
vt 0.067005 0.319183
vt 0.050261 0.319182
vt 0.050261 0.331007
vt 0.067005 0.331007
vn 1.0000 0.0000 0.0000
vn 0.0000 0.0000 1.0000
vn -1.0000 0.0000 0.0000
vn 0.0000 -1.0000 0.0000
vn 0.0000 0.0000 -1.0000
vn 0.0000 1.0000 0.0000
vn 1.0000 -0.0001 0.0000
vn 0.9644 -0.2644 -0.0000
vn 0.9645 -0.2641 0.0000
vn -0.9639 0.2661 0.0000
vn -0.9637 0.2669 0.0000
vn -0.9640 0.2659 0.0000
vn -0.9622 0.2724 0.0000
vn -0.9644 -0.2645 -0.0000
vn 0.9640 0.2660 0.0000
vn 0.9622 0.2724 0.0000
vn -0.9644 -0.2645 0.0015
vn -0.9644 -0.2646 -0.0001
vn 0.9622 0.2724 -0.0001
usemtl Material
s off
f 5/1/1 7/2/1 14/3/1 16/4/1
f 20/5/2 9/6/2 10/7/2 18/8/2
f 18/9/3 10/10/3 12/11/3 17/12/3
f 6/13/4 2/14/4 4/15/4 8/16/4
f 19/17/1 11/18/1 9/19/1 20/20/1
f 17/21/5 12/22/5 11/23/5 19/24/5
f 3/25/6 7/26/6 10/27/6 9/28/6
f 1/29/6 3/30/6 9/31/6 11/32/6
f 7/33/6 5/34/6 12/35/6 10/36/6
f 5/37/6 1/38/6 11/39/6 12/40/6
f 15/41/6 16/42/6 14/43/6 13/44/6
f 7/45/5 3/46/5 13/47/5 14/48/5
f 1/49/2 5/50/2 16/51/2 15/52/2
f 3/53/3 1/54/3 15/55/3 13/56/3
f 6/57/4 8/58/4 18/59/4 17/60/4
f 2/61/4 6/62/4 17/63/4 19/64/4
f 8/65/4 4/66/4 20/67/4 18/68/4
f 4/69/4 2/70/4 19/71/4 20/72/4
f 21/73/3 22/74/3 24/75/3 23/76/3
f 23/77/5 24/78/5 28/79/5 27/80/5
f 27/81/7 28/82/7 26/83/7 25/84/7
f 25/85/2 26/86/2 22/87/2 21/88/2
f 23/76/4 27/81/4 25/84/4 21/89/4
f 28/90/6 24/91/6 22/92/6 26/93/6
f 29/94/6 30/95/6 32/96/6 31/97/6
f 33/98/2 34/99/2 36/100/2 35/101/2
f 37/102/5 38/103/5 40/104/5 39/105/5
f 44/106/4 43/107/4 41/108/4 42/109/4
f 48/110/4 47/111/4 45/112/4 46/113/4
f 49/114/1 50/115/1 52/116/1 51/117/1
f 53/118/1 54/119/1 56/120/1 55/121/1
f 57/122/1 58/123/1 60/124/1 59/125/1
f 61/126/3 62/127/3 64/128/3 63/129/3
f 65/130/3 66/131/3 68/132/3 67/133/3
f 69/134/3 70/135/3 72/136/3 71/137/3
f 73/138/6 74/139/6 76/140/6 75/141/6
f 77/142/2 78/143/2 80/144/2 79/145/2
f 81/146/5 82/147/5 84/148/5 83/149/5
f 88/150/4 87/151/4 85/152/4 86/153/4
f 92/154/4 91/155/4 89/156/4 90/157/4
f 93/158/1 94/159/1 96/160/1 95/161/1
f 97/162/1 98/163/1 100/164/1 99/165/1
f 101/166/1 102/167/1 104/168/1 103/169/1
f 105/170/3 106/171/3 108/172/3 107/173/3
f 109/174/3 110/175/3 112/176/3 111/177/3
f 113/178/3 114/179/3 116/180/3 115/181/3
f 117/182/1 118/183/1 120/184/1 119/185/1
f 121/186/2 122/187/2 124/188/2 123/189/2
f 125/190/5 126/191/5 128/192/5 127/193/5
f 132/194/4 131/195/4 129/196/4 130/197/4
f 136/198/4 135/199/4 133/200/4 134/201/4
f 137/202/8 138/203/8 140/204/8 139/205/8
f 141/206/9 142/207/9 144/208/9 143/209/9
f 145/210/9 146/211/9 148/212/9 147/213/9
f 149/214/10 150/215/10 152/216/10 151/217/10
f 153/218/11 154/219/11 156/220/11 155/221/11
f 157/222/11 158/223/11 160/224/11 159/225/11
f 161/226/1 162/227/1 164/228/1 163/229/1
f 165/230/2 166/231/2 168/232/2 167/233/2
f 169/234/5 170/235/5 172/236/5 171/237/5
f 176/238/4 175/239/4 173/240/4 174/241/4
f 180/242/4 179/243/4 177/244/4 178/245/4
f 181/246/8 182/247/8 184/248/8 183/249/8
f 185/250/9 186/251/9 188/252/9 187/253/9
f 189/254/9 190/255/9 192/256/9 191/257/9
f 193/258/12 194/259/12 196/260/12 195/261/12
f 197/262/13 198/263/13 200/264/13 199/265/13
f 201/266/13 202/267/13 204/268/13 203/269/13
f 205/270/3 206/271/3 208/272/3 207/273/3
f 209/274/2 210/275/2 212/276/2 211/277/2
f 213/278/5 214/279/5 216/280/5 215/281/5
f 220/282/4 219/283/4 217/284/4 218/285/4
f 224/286/4 223/287/4 221/288/4 222/289/4
f 225/290/14 226/291/14 228/292/14 227/293/14
f 229/294/14 230/295/14 232/296/14 231/297/14
f 233/298/14 234/299/14 236/300/14 235/301/14
f 237/302/15 238/303/15 240/304/15 239/305/15
f 241/306/16 242/307/16 244/308/16 243/309/16
f 245/310/16 246/311/16 248/312/16 247/313/16
f 249/314/3 250/315/3 252/316/3 251/317/3
f 253/318/2 254/319/2 256/320/2 255/321/2
f 257/322/5 258/323/5 260/324/5 259/325/5
f 264/326/4 263/327/4 261/328/4 262/329/4
f 268/330/4 267/331/4 265/332/4 266/333/4
f 269/334/17 270/335/17 272/336/17 271/337/17
f 273/338/14 274/339/14 276/340/14 275/341/14
f 277/342/18 278/343/18 280/344/18 279/345/18
f 281/346/15 282/347/15 284/348/15 283/349/15
f 285/350/16 286/351/16 288/352/16 287/353/16
f 289/354/19 290/355/19 292/356/19 291/357/19
